<svg width="16" height="16" viewBox="0 0 16 16" fill="none" xmlns="http://www.w3.org/2000/svg">
<path fill-rule="evenodd" clip-rule="evenodd" d="M6.23901 3.15094C6.5706 3.40581 6.76129 3.78586 6.76129 4.19365C6.76129 7.48069 6.87462 8.36523 7.33794 8.7018C7.64196 8.92144 8.05856 8.91919 9.46228 8.88096C10.1147 8.86222 10.9502 8.83823 12.0446 8.83823C12.4811 8.83823 12.8923 9.02113 13.1711 9.33972C13.4299 9.63581 13.5432 10.0226 13.4835 10.4034C12.972 13.6455 10.1538 16 6.78273 16C3.04254 16 0 13.0218 0 9.36146C0 6.45897 2.24227 3.55648 4.9984 2.89233C5.42879 2.78963 5.89133 2.88558 6.23901 3.15094ZM5.34684 3.97551C5.32234 3.97551 5.29783 3.97851 5.27333 3.98451C2.99889 4.53247 1.14871 6.94472 1.14871 9.36146C1.14871 12.4019 3.67586 14.8756 6.78273 14.8756C9.58327 14.8756 11.9236 12.9229 12.3478 10.2318C12.3509 10.2093 12.3616 10.144 12.2988 10.0713C12.2391 10.0031 12.1441 9.96264 12.0446 9.96264C10.964 9.96264 10.1392 9.98663 9.49521 10.0046C7.93603 10.0503 7.29122 10.0676 6.65407 9.60508C5.743 8.94441 5.62322 7.83371 5.61333 4.71691L5.61258 4.19365C5.61258 4.13068 5.58501 4.07821 5.52987 4.03623C5.47856 3.9965 5.41347 3.97551 5.34684 3.97551ZM13.8231 2.04924C15.1694 3.3663 16.024 5.09715 15.9995 6.45919C15.9903 6.99067 15.5959 7.43444 15.0629 7.51314C14.0229 7.66681 12.8053 7.71329 11.7278 7.71329C10.7246 7.71329 9.84166 7.67356 9.33393 7.64508C8.69525 7.60835 8.18675 7.10985 8.14999 6.48468C8.09026 5.4937 7.96084 2.97576 8.05274 1.02827C8.07801 0.462315 8.54515 0.0118 9.11644 0.0020551C10.753 -0.0444207 12.4416 0.699192 13.8231 2.04924ZM9.21446 1.12572H9.19761C9.11338 3.01399 9.2382 5.45322 9.2964 6.41946C9.29947 6.47718 9.34235 6.51916 9.40055 6.52216C10.1878 6.56639 12.9003 6.68932 14.8508 6.40822C14.8554 5.35577 14.1194 3.92851 13.0113 2.84458C11.8749 1.73365 10.5301 1.12572 9.21446 1.12572Z" fill="#676767"/>
</svg>
