<svg width="16" height="16" viewBox="0 0 16 16" fill="none" xmlns="http://www.w3.org/2000/svg">
<path fill-rule="evenodd" clip-rule="evenodd" d="M6.00862 1C4.68024 1 3.40626 1.52773 2.46695 2.4671C1.52764 3.40647 0.999938 4.68053 0.999938 6.009C0.999938 7.33747 1.52764 8.61153 2.46695 9.5509C3.40626 10.4903 4.68024 11.018 6.00862 11.018V12.018C4.41504 12.018 2.88672 11.3849 1.75989 10.258C0.63305 9.1311 0 7.60269 0 6.009C0 4.41531 0.63305 2.8869 1.75989 1.76C2.88672 0.633089 4.41504 8.32162e-08 6.00862 8.32162e-08V1ZM11.0183 6.009C11.0183 5.35112 10.8887 4.69969 10.637 4.09191C10.3852 3.48412 10.0162 2.93189 9.55095 2.46675C9.08574 2.00161 8.53347 1.63267 7.92567 1.381C7.31788 1.12933 6.66646 0.999869 6.00862 1V8.32162e-08C6.79777 -0.000131253 7.57922 0.155199 8.30833 0.457121C9.03745 0.759043 9.69995 1.20164 10.258 1.75964C10.8161 2.31764 11.2587 2.98011 11.5608 3.70922C11.8628 4.43833 12.0182 5.2198 12.0182 6.009H11.0183ZM7.00856 6.509L6.50859 7.009V15.5L7.00856 16H15.5L16 15.5V7.008L15.5 6.508H7.00756L7.00856 6.509ZM7.50853 15.001V7.508H15.0001V15.001H7.50853Z" fill="#676767"/>
</svg>
