<svg width="16" height="16" viewBox="0 0 16 16" fill="none" xmlns="http://www.w3.org/2000/svg">
<path fill-rule="evenodd" clip-rule="evenodd" d="M8.5184 0C9.11244 0 9.68988 0.227016 10.1039 0.621592C10.5171 1.01848 10.7452 1.56286 10.7278 2.11496C10.7294 2.23927 10.7734 2.3829 10.8531 2.50876C10.985 2.71724 11.1932 2.86395 11.4405 2.92418C11.6877 2.98132 11.9466 2.95044 12.1664 2.82921C13.2284 2.26476 14.5799 2.60296 15.1864 3.58361L15.7033 4.41678C15.7165 4.43917 15.7282 4.46079 15.7381 4.48318C16.2874 5.44916 15.9206 6.66532 14.9002 7.2205C14.7516 7.30003 14.6313 7.41123 14.5484 7.54558C14.4198 7.75329 14.3841 8.00039 14.4488 8.2274C14.5152 8.45905 14.6737 8.65132 14.8968 8.77023C15.4004 9.03972 15.7763 9.49375 15.9265 10.018C16.0766 10.5416 15.9945 11.1099 15.7016 11.5786L15.1507 12.4326C14.5442 13.4024 13.1927 13.7383 12.1415 13.1731C12.0013 13.0982 11.8395 13.0573 11.6786 13.0534H11.6736C11.4338 13.0534 11.1874 13.1484 11.0082 13.3144C10.8265 13.4835 10.727 13.709 10.7286 13.9484C10.7228 15.0827 9.73137 16 8.5184 16H7.47884C6.26006 16 5.26862 15.078 5.26862 13.9437C5.26696 13.804 5.22381 13.6588 5.14334 13.5329C5.01308 13.3214 4.80235 13.17 4.55926 13.1098C4.31782 13.0496 4.05316 13.0828 3.83579 13.2001C3.31476 13.4704 2.70164 13.536 2.14079 13.3893C1.58077 13.2418 1.09708 12.8835 0.813334 12.4087L0.294795 11.577C-0.311687 10.5979 0.0492153 9.34318 1.09957 8.77795C1.39742 8.61812 1.58243 8.32006 1.58243 8.00039C1.58243 7.68071 1.39742 7.38188 1.09957 7.22205C0.0483857 6.65373 -0.311687 5.39588 0.293966 4.41678L0.856476 3.55736C1.45466 2.58906 2.80701 2.24777 3.86151 2.81145C4.00504 2.89098 4.16102 2.93113 4.31948 2.93268C4.83636 2.93268 5.26862 2.53578 5.27691 2.04778C5.27359 1.50958 5.50175 0.993002 5.91741 0.60306C6.33473 0.213889 6.88895 0 7.47884 0H8.5184ZM8.5184 1.15825H7.47884C7.22164 1.15825 6.98104 1.25168 6.79934 1.42001C6.61848 1.58911 6.51975 1.81381 6.52141 2.05318C6.50398 3.18209 5.51254 4.09092 4.31202 4.09092C3.92705 4.08706 3.5562 3.99054 3.23429 3.8114C2.78212 3.57203 2.1914 3.71951 1.92674 4.14806L1.36506 5.00748C1.10786 5.4229 1.2655 5.97191 1.72347 6.21978C2.40297 6.58578 2.82692 7.26837 2.82692 8.00039C2.82692 8.7324 2.40297 9.41422 1.72181 9.78099C1.26633 10.0265 1.10869 10.5725 1.37253 10.9972L1.89604 11.8373C2.02547 12.0542 2.23703 12.211 2.48178 12.2751C2.7257 12.3384 2.99451 12.3114 3.21852 12.1956C3.5479 12.0156 3.9312 11.9222 4.31616 11.9222C4.50616 11.9222 4.69615 11.9446 4.88199 11.9909C5.44285 12.1315 5.92986 12.4805 6.21858 12.9492C6.40608 13.2434 6.50979 13.587 6.51311 13.9376C6.51311 14.4395 6.94619 14.8418 7.47884 14.8418H8.5184C9.04856 14.8418 9.48164 14.4418 9.48413 13.9484C9.48081 13.4032 9.7098 12.8851 10.1288 12.4952C10.5419 12.1106 11.1194 11.8797 11.6968 11.8952C12.0752 11.9037 12.4394 11.9986 12.7605 12.1685C13.2226 12.4148 13.8125 12.2681 14.0796 11.8434L14.6305 10.9887C14.7533 10.7918 14.789 10.5447 14.7234 10.3169C14.6587 10.0891 14.4961 9.89141 14.2771 9.77482C13.7644 9.49993 13.3985 9.05671 13.2466 8.52546C13.0965 8.00425 13.1786 7.43516 13.4715 6.96646C13.6623 6.65759 13.9419 6.39737 14.2771 6.21823C14.7268 5.97346 14.8844 5.42599 14.6231 4.99976C14.6123 4.98277 14.6023 4.96501 14.594 4.94648L14.1078 4.16196C13.8432 3.73341 13.2541 3.58593 12.792 3.8307C12.2925 4.10559 11.6985 4.18435 11.1277 4.04459C10.5577 3.90715 10.0798 3.57126 9.78198 3.09715C9.59116 2.80064 9.48745 2.45548 9.48413 2.10415C9.49159 1.84007 9.39204 1.60301 9.21117 1.42927C9.03113 1.25631 8.77809 1.15825 8.5184 1.15825ZM8.00227 5.38515C9.55125 5.38515 10.8115 6.55883 10.8115 8.00046C10.8115 9.44209 9.55125 10.6142 8.00227 10.6142C6.45329 10.6142 5.19303 9.44209 5.19303 8.00046C5.19303 6.55883 6.45329 5.38515 8.00227 5.38515ZM8.00227 6.54339C7.13942 6.54339 6.43753 7.19741 6.43753 8.00046C6.43753 8.80351 7.13942 9.45599 8.00227 9.45599C8.86512 9.45599 9.56701 8.80351 9.56701 8.00046C9.56701 7.19741 8.86512 6.54339 8.00227 6.54339Z" fill="#676767"/>
</svg>
